<svg width="42" height="42" viewBox="0 0 42 42" fill="none" xmlns="http://www.w3.org/2000/svg">
<path d="M38.5 35V21.3045C38.5001 20.3517 38.3057 19.4088 37.9286 18.5338C37.5516 17.6587 36.9999 16.8698 36.3072 16.2155L23.4045 4.02149C22.7547 3.40711 21.8943 3.06479 21 3.06479C20.1057 3.06479 19.2453 3.40711 18.5955 4.02149L5.69275 16.2155C5.00014 16.8698 4.44842 17.6587 4.07137 18.5338C3.69433 19.4088 3.4999 20.3517 3.5 21.3045V35C3.5 35.9282 3.86875 36.8185 4.52513 37.4749C5.1815 38.1312 6.07174 38.5 7 38.5H35C35.9283 38.5 36.8185 38.1312 37.4749 37.4749C38.1313 36.8185 38.5 35.9282 38.5 35Z" stroke="#3071EA" stroke-width="3" stroke-linecap="round" stroke-linejoin="round"/>
</svg>
