<svg width="42" height="42" viewBox="0 0 42 42" fill="none" xmlns="http://www.w3.org/2000/svg">
<path d="M36.4219 32.4844H8.20312V6.89062C8.20312 6.71016 8.05547 6.5625 7.875 6.5625H5.57812C5.39766 6.5625 5.25 6.71016 5.25 6.89062V35.1094C5.25 35.2898 5.39766 35.4375 5.57812 35.4375H36.4219C36.6023 35.4375 36.75 35.2898 36.75 35.1094V32.8125C36.75 32.632 36.6023 32.4844 36.4219 32.4844ZM12.5426 26.1557C12.6697 26.2828 12.8748 26.2828 13.0061 26.1557L18.6785 20.5119L23.9121 25.7783C24.0393 25.9055 24.2484 25.9055 24.3756 25.7783L35.6713 14.4867C35.7984 14.3596 35.7984 14.1504 35.6713 14.0232L34.0471 12.399C33.9854 12.338 33.9021 12.3037 33.8153 12.3037C33.7285 12.3037 33.6453 12.338 33.5836 12.399L24.15 21.8285L18.9246 16.5703C18.8629 16.5092 18.7797 16.475 18.6929 16.475C18.6061 16.475 18.5228 16.5092 18.4611 16.5703L10.9225 24.0639C10.8614 24.1255 10.8271 24.2088 10.8271 24.2956C10.8271 24.3824 10.8614 24.4657 10.9225 24.5273L12.5426 26.1557Z" fill="#3071EA"/>
</svg>
