<svg width="42" height="42" viewBox="0 0 42 42" fill="none" xmlns="http://www.w3.org/2000/svg">
<path d="M35.2119 31.3195C34.4382 29.4868 33.3154 27.8221 31.9061 26.4182C30.501 25.0101 28.8366 23.8875 27.0047 23.1123C26.9883 23.1041 26.9719 23.1 26.9555 23.0918C29.5107 21.2461 31.1719 18.2396 31.1719 14.8477C31.1719 9.22852 26.6191 4.67578 21 4.67578C15.3809 4.67578 10.8281 9.22852 10.8281 14.8477C10.8281 18.2396 12.4893 21.2461 15.0445 23.0959C15.0281 23.1041 15.0117 23.1082 14.9953 23.1164C13.1578 23.8916 11.509 25.0031 10.0939 26.4223C8.68591 27.8273 7.5633 29.4918 6.78808 31.3236C6.02651 33.1171 5.61578 35.0398 5.57812 36.9879C5.57703 37.0317 5.5847 37.0752 5.6007 37.116C5.6167 37.1567 5.6407 37.1939 5.67128 37.2252C5.70186 37.2566 5.7384 37.2815 5.77875 37.2985C5.81911 37.3155 5.86246 37.3242 5.90625 37.3242H8.36718C8.54765 37.3242 8.69121 37.1807 8.69531 37.0043C8.77734 33.8379 10.0488 30.8725 12.2965 28.6248C14.6221 26.2992 17.7105 25.0195 21 25.0195C24.2894 25.0195 27.3779 26.2992 29.7035 28.6248C31.9512 30.8725 33.2227 33.8379 33.3047 37.0043C33.3088 37.1848 33.4523 37.3242 33.6328 37.3242H36.0937C36.1375 37.3242 36.1809 37.3155 36.2212 37.2985C36.2616 37.2815 36.2981 37.2566 36.3287 37.2252C36.3593 37.1939 36.3833 37.1567 36.3993 37.116C36.4153 37.0752 36.423 37.0317 36.4219 36.9879C36.3809 35.0273 35.9748 33.1201 35.2119 31.3195ZM21 21.9023C19.1174 21.9023 17.3455 21.1682 16.0125 19.8352C14.6795 18.5021 13.9453 16.7303 13.9453 14.8477C13.9453 12.965 14.6795 11.1932 16.0125 9.86016C17.3455 8.52715 19.1174 7.79297 21 7.79297C22.8826 7.79297 24.6545 8.52715 25.9875 9.86016C27.3205 11.1932 28.0547 12.965 28.0547 14.8477C28.0547 16.7303 27.3205 18.5021 25.9875 19.8352C24.6545 21.1682 22.8826 21.9023 21 21.9023Z" fill="#3071EA"/>
</svg>
