<svg width="1424" height="249" viewBox="0 0 1424 249" fill="none" xmlns="http://www.w3.org/2000/svg">
<path d="M-14 198.806L34 174.049C82 149.292 178 99.7784 274 58.4651C370 17.7707 466 -16.2702 562 8.951C658 33.2438 754 116.799 850 141.092C946 166.313 1042 132.272 1138 141.092C1234 149.292 1330 198.806 1378 223.564L1426 248.321H1378C1330 248.321 1234 248.321 1138 248.321C1042 248.321 946 248.321 850 248.321C754 248.321 658 248.321 562 248.321C466 248.321 370 248.321 274 248.321C178 248.321 82 248.321 34 248.321H-14V198.806Z" fill="#0099FF"/>
</svg>
